<svg width="60" height="54" viewBox="0 0 60 54" fill="none" xmlns="http://www.w3.org/2000/svg">
<path d="M18 6L39 12" stroke="#E8F0FE" stroke-width="0.3"/>
<path d="M21 12L42 18" stroke="#E8F0FE" stroke-width="0.3"/>
<path d="M18 18L48 24" stroke="#E8F0FE" stroke-width="0.3"/>
<path d="M12 24L54 30" stroke="#E8F0FE" stroke-width="0.3"/>
<path d="M6 30L57 36" stroke="#E8F0FE" stroke-width="0.3"/>
<path d="M3 36L57 45" stroke="#E8F0FE" stroke-width="0.3"/>
<path d="M3 45L51 51" stroke="#E8F0FE" stroke-width="0.3"/>
<path d="M12 3L42 6" stroke="#E8F0FE" stroke-width="0.3"/>
<circle cx="12" cy="3" r="3" fill="url(#paint0_linear_2_388)"/>
<circle cx="21" cy="12" r="3" fill="url(#paint1_linear_2_388)"/>
<circle cx="12" cy="24" r="3" fill="url(#paint2_linear_2_388)"/>
<circle cx="3" cy="36" r="3" fill="url(#paint3_linear_2_388)"/>
<circle cx="9" cy="51" r="3" fill="url(#paint4_linear_2_388)"/>
<circle cx="3" cy="3" r="3" transform="matrix(-1 0 0 1 45 3)" fill="url(#paint5_linear_2_388)"/>
<circle cx="3" cy="3" r="3" transform="matrix(-1 0 0 1 45 15)" fill="url(#paint6_linear_2_388)"/>
<circle cx="3" cy="3" r="3" transform="matrix(-1 0 0 1 57 27)" fill="url(#paint7_linear_2_388)"/>
<circle cx="3" cy="3" r="3" transform="matrix(-1 0 0 1 60 42)" fill="url(#paint8_linear_2_388)"/>
<circle cx="18" cy="6" r="3" fill="url(#paint9_linear_2_388)"/>
<circle cx="18" cy="18" r="3" fill="url(#paint10_linear_2_388)"/>
<circle cx="6" cy="30" r="3" fill="url(#paint11_linear_2_388)"/>
<circle cx="3" cy="45" r="3" fill="url(#paint12_linear_2_388)"/>
<circle cx="3" cy="3" r="3" transform="matrix(-1 0 0 1 51 0)" fill="url(#paint13_linear_2_388)"/>
<circle cx="3" cy="3" r="3" transform="matrix(-1 0 0 1 42 9)" fill="url(#paint14_linear_2_388)"/>
<circle cx="3" cy="3" r="3" transform="matrix(-1 0 0 1 51 21)" fill="url(#paint15_linear_2_388)"/>
<circle cx="3" cy="3" r="3" transform="matrix(-1 0 0 1 60 33)" fill="url(#paint16_linear_2_388)"/>
<circle cx="3" cy="3" r="3" transform="matrix(-1 0 0 1 54 48)" fill="url(#paint17_linear_2_388)"/>
<defs>
<linearGradient id="paint0_linear_2_388" x1="9" y1="3" x2="15" y2="3" gradientUnits="userSpaceOnUse">
<stop stop-color="#8F83EF"/>
<stop offset="1" stop-color="#64FFDA"/>
</linearGradient>
<linearGradient id="paint1_linear_2_388" x1="18" y1="12" x2="24" y2="12" gradientUnits="userSpaceOnUse">
<stop stop-color="#8F83EF"/>
<stop offset="1" stop-color="#64FFDA"/>
</linearGradient>
<linearGradient id="paint2_linear_2_388" x1="9" y1="24" x2="15" y2="24" gradientUnits="userSpaceOnUse">
<stop stop-color="#8F83EF"/>
<stop offset="1" stop-color="#64FFDA"/>
</linearGradient>
<linearGradient id="paint3_linear_2_388" x1="0" y1="36" x2="6" y2="36" gradientUnits="userSpaceOnUse">
<stop stop-color="#8F83EF"/>
<stop offset="1" stop-color="#64FFDA"/>
</linearGradient>
<linearGradient id="paint4_linear_2_388" x1="6" y1="51" x2="12" y2="51" gradientUnits="userSpaceOnUse">
<stop stop-color="#8F83EF"/>
<stop offset="1" stop-color="#64FFDA"/>
</linearGradient>
<linearGradient id="paint5_linear_2_388" x1="0" y1="3" x2="6" y2="3" gradientUnits="userSpaceOnUse">
<stop stop-color="#8F83EF"/>
<stop offset="1" stop-color="#64FFDA"/>
</linearGradient>
<linearGradient id="paint6_linear_2_388" x1="0" y1="3" x2="6" y2="3" gradientUnits="userSpaceOnUse">
<stop stop-color="#8F83EF"/>
<stop offset="1" stop-color="#64FFDA"/>
</linearGradient>
<linearGradient id="paint7_linear_2_388" x1="0" y1="3" x2="6" y2="3" gradientUnits="userSpaceOnUse">
<stop stop-color="#8F83EF"/>
<stop offset="1" stop-color="#64FFDA"/>
</linearGradient>
<linearGradient id="paint8_linear_2_388" x1="0" y1="3" x2="6" y2="3" gradientUnits="userSpaceOnUse">
<stop stop-color="#8F83EF"/>
<stop offset="1" stop-color="#64FFDA"/>
</linearGradient>
<linearGradient id="paint9_linear_2_388" x1="15" y1="6" x2="21" y2="6" gradientUnits="userSpaceOnUse">
<stop stop-color="#8F83EF"/>
<stop offset="1" stop-color="#64FFDA"/>
</linearGradient>
<linearGradient id="paint10_linear_2_388" x1="15" y1="18" x2="21" y2="18" gradientUnits="userSpaceOnUse">
<stop stop-color="#8F83EF"/>
<stop offset="1" stop-color="#64FFDA"/>
</linearGradient>
<linearGradient id="paint11_linear_2_388" x1="3" y1="30" x2="9" y2="30" gradientUnits="userSpaceOnUse">
<stop stop-color="#8F83EF"/>
<stop offset="1" stop-color="#64FFDA"/>
</linearGradient>
<linearGradient id="paint12_linear_2_388" x1="0" y1="45" x2="6" y2="45" gradientUnits="userSpaceOnUse">
<stop stop-color="#8F83EF"/>
<stop offset="1" stop-color="#64FFDA"/>
</linearGradient>
<linearGradient id="paint13_linear_2_388" x1="0" y1="3" x2="6" y2="3" gradientUnits="userSpaceOnUse">
<stop stop-color="#8F83EF"/>
<stop offset="1" stop-color="#64FFDA"/>
</linearGradient>
<linearGradient id="paint14_linear_2_388" x1="0" y1="3" x2="6" y2="3" gradientUnits="userSpaceOnUse">
<stop stop-color="#8F83EF"/>
<stop offset="1" stop-color="#64FFDA"/>
</linearGradient>
<linearGradient id="paint15_linear_2_388" x1="0" y1="3" x2="6" y2="3" gradientUnits="userSpaceOnUse">
<stop stop-color="#8F83EF"/>
<stop offset="1" stop-color="#64FFDA"/>
</linearGradient>
<linearGradient id="paint16_linear_2_388" x1="0" y1="3" x2="6" y2="3" gradientUnits="userSpaceOnUse">
<stop stop-color="#8F83EF"/>
<stop offset="1" stop-color="#64FFDA"/>
</linearGradient>
<linearGradient id="paint17_linear_2_388" x1="0" y1="3" x2="6" y2="3" gradientUnits="userSpaceOnUse">
<stop stop-color="#8F83EF"/>
<stop offset="1" stop-color="#64FFDA"/>
</linearGradient>
</defs>
</svg>
